<svg width="111" height="108" viewBox="0 0 111 108" fill="none" xmlns="http://www.w3.org/2000/svg">
<g clip-path="url(#clip0_4_28)">
<path d="M36.6667 72.3334C56.3649 72.3334 72.3334 56.3649 72.3334 36.6667C72.3334 16.9685 56.3649 1 36.6667 1C16.9685 1 1 16.9685 1 36.6667C1 56.3649 16.9685 72.3334 36.6667 72.3334Z" fill="white" stroke="black" stroke-width="2"/>
<path d="M36.5221 54.5442C46.4754 54.5442 54.5442 46.4754 54.5442 36.5221C54.5442 26.5688 46.4754 18.5 36.5221 18.5C26.5688 18.5 18.5 26.5688 18.5 36.5221C18.5 46.4754 26.5688 54.5442 36.5221 54.5442Z" fill="#F2F2F2" stroke="black"/>
<path d="M73.6667 106.333C93.3649 106.333 109.333 90.3649 109.333 70.6667C109.333 50.9685 93.3649 35 73.6667 35C53.9685 35 38 50.9685 38 70.6667C38 90.3649 53.9685 106.333 73.6667 106.333Z" fill="white" stroke="black" stroke-width="2"/>
<path d="M73.5221 88.5442C83.4754 88.5442 91.5442 80.4754 91.5442 70.5221C91.5442 60.5688 83.4754 52.5 73.5221 52.5C63.5688 52.5 55.5 60.5688 55.5 70.5221C55.5 80.4754 63.5688 88.5442 73.5221 88.5442Z" fill="#F2F2F2" stroke="black"/>
</g>
<defs>
<clipPath id="clip0_4_28">
<rect width="111" height="108" fill="white"/>
</clipPath>
</defs>
</svg>
