<svg width="527" height="108" viewBox="0 0 527 108" fill="none" xmlns="http://www.w3.org/2000/svg">
<g clip-path="url(#clip0_4_33)">
<path d="M36.6667 72.3334C56.3649 72.3334 72.3334 56.3649 72.3334 36.6667C72.3334 16.9685 56.3649 1 36.6667 1C16.9685 1 1 16.9685 1 36.6667C1 56.3649 16.9685 72.3334 36.6667 72.3334Z" fill="white" stroke="black" stroke-width="2"/>
<path d="M36.5221 54.5442C46.4754 54.5442 54.5442 46.4754 54.5442 36.5221C54.5442 26.5688 46.4754 18.5 36.5221 18.5C26.5688 18.5 18.5 26.5688 18.5 36.5221C18.5 46.4754 26.5688 54.5442 36.5221 54.5442Z" fill="#F2F2F2" stroke="black"/>
<path d="M73.6667 106.333C93.3649 106.333 109.333 90.3649 109.333 70.6667C109.333 50.9685 93.3649 35 73.6667 35C53.9685 35 38 50.9685 38 70.6667C38 90.3649 53.9685 106.333 73.6667 106.333Z" fill="white" stroke="black" stroke-width="2"/>
<path d="M73.5221 88.5442C83.4754 88.5442 91.5442 80.4754 91.5442 70.5221C91.5442 60.5688 83.4754 52.5 73.5221 52.5C63.5688 52.5 55.5 60.5688 55.5 70.5221C55.5 80.4754 63.5688 88.5442 73.5221 88.5442Z" fill="#F2F2F2" stroke="black"/>
</g>
<path d="M158.273 49.5625C157.915 48.3182 157.412 47.2187 156.764 46.2642C156.116 45.2926 155.324 44.4744 154.386 43.8097C153.466 43.1278 152.409 42.608 151.216 42.25C150.04 41.892 148.736 41.7131 147.304 41.7131C144.628 41.7131 142.276 42.3778 140.247 43.7074C138.236 45.0369 136.668 46.9716 135.543 49.5114C134.418 52.0341 133.855 55.1193 133.855 58.767C133.855 62.4148 134.409 65.517 135.517 68.0739C136.625 70.6307 138.193 72.5824 140.222 73.929C142.25 75.2585 144.645 75.9233 147.406 75.9233C149.912 75.9233 152.051 75.4801 153.824 74.5938C155.614 73.6903 156.977 72.4205 157.915 70.7841C158.869 69.1477 159.347 67.2131 159.347 64.9801L161.597 65.3125H148.097V56.9773H170.009V63.5739C170.009 68.1761 169.037 72.1307 167.094 75.4375C165.151 78.7273 162.474 81.267 159.065 83.0568C155.656 84.8295 151.753 85.7159 147.355 85.7159C142.446 85.7159 138.134 84.6335 134.418 82.4688C130.702 80.2869 127.804 77.1932 125.724 73.1875C123.662 69.1648 122.631 64.392 122.631 58.8693C122.631 54.625 123.244 50.8409 124.472 47.517C125.716 44.1761 127.455 41.3466 129.688 39.0284C131.92 36.7102 134.52 34.946 137.486 33.7358C140.452 32.5256 143.665 31.9205 147.125 31.9205C150.091 31.9205 152.852 32.3551 155.409 33.2244C157.966 34.0767 160.233 35.2869 162.21 36.8551C164.205 38.4233 165.832 40.2898 167.094 42.4545C168.355 44.6023 169.165 46.9716 169.523 49.5625H158.273ZM195.864 85.767C191.893 85.767 188.458 84.9233 185.56 83.2358C182.68 81.5312 180.455 79.1619 178.887 76.1278C177.319 73.0767 176.535 69.5398 176.535 65.517C176.535 61.4602 177.319 57.9148 178.887 54.8807C180.455 51.8295 182.68 49.4602 185.56 47.7727C188.458 46.0682 191.893 45.2159 195.864 45.2159C199.836 45.2159 203.262 46.0682 206.143 47.7727C209.04 49.4602 211.273 51.8295 212.842 54.8807C214.41 57.9148 215.194 61.4602 215.194 65.517C215.194 69.5398 214.41 73.0767 212.842 76.1278C211.273 79.1619 209.04 81.5312 206.143 83.2358C203.262 84.9233 199.836 85.767 195.864 85.767ZM195.915 77.3295C197.722 77.3295 199.231 76.8182 200.441 75.7955C201.651 74.7557 202.563 73.3409 203.177 71.5511C203.808 69.7614 204.123 67.7244 204.123 65.4403C204.123 63.1562 203.808 61.1193 203.177 59.3295C202.563 57.5398 201.651 56.125 200.441 55.0852C199.231 54.0455 197.722 53.5256 195.915 53.5256C194.092 53.5256 192.558 54.0455 191.313 55.0852C190.086 56.125 189.157 57.5398 188.526 59.3295C187.913 61.1193 187.606 63.1562 187.606 65.4403C187.606 67.7244 187.913 69.7614 188.526 71.5511C189.157 73.3409 190.086 74.7557 191.313 75.7955C192.558 76.8182 194.092 77.3295 195.915 77.3295ZM240.021 85.767C236.049 85.767 232.614 84.9233 229.717 83.2358C226.836 81.5312 224.612 79.1619 223.043 76.1278C221.475 73.0767 220.691 69.5398 220.691 65.517C220.691 61.4602 221.475 57.9148 223.043 54.8807C224.612 51.8295 226.836 49.4602 229.717 47.7727C232.614 46.0682 236.049 45.2159 240.021 45.2159C243.992 45.2159 247.418 46.0682 250.299 47.7727C253.197 49.4602 255.43 51.8295 256.998 54.8807C258.566 57.9148 259.35 61.4602 259.35 65.517C259.35 69.5398 258.566 73.0767 256.998 76.1278C255.43 79.1619 253.197 81.5312 250.299 83.2358C247.418 84.9233 243.992 85.767 240.021 85.767ZM240.072 77.3295C241.879 77.3295 243.387 76.8182 244.597 75.7955C245.808 74.7557 246.719 73.3409 247.333 71.5511C247.964 69.7614 248.279 67.7244 248.279 65.4403C248.279 63.1562 247.964 61.1193 247.333 59.3295C246.719 57.5398 245.808 56.125 244.597 55.0852C243.387 54.0455 241.879 53.5256 240.072 53.5256C238.248 53.5256 236.714 54.0455 235.469 55.0852C234.242 56.125 233.313 57.5398 232.683 59.3295C232.069 61.1193 231.762 63.1562 231.762 65.4403C231.762 67.7244 232.069 69.7614 232.683 71.5511C233.313 73.3409 234.242 74.7557 235.469 75.7955C236.714 76.8182 238.248 77.3295 240.072 77.3295ZM280.904 85.6392C277.921 85.6392 275.219 84.8722 272.799 83.3381C270.396 81.7869 268.487 79.5114 267.072 76.5114C265.674 73.4943 264.975 69.7955 264.975 65.4148C264.975 60.9148 265.7 57.1733 267.148 54.1903C268.597 51.1903 270.523 48.9489 272.927 47.4659C275.347 45.9659 277.998 45.2159 280.879 45.2159C283.077 45.2159 284.91 45.5909 286.376 46.3409C287.859 47.0739 289.052 47.9943 289.955 49.1023C290.876 50.1932 291.575 51.267 292.052 52.3239H292.384V32.6364H303.251V85H292.512V78.7102H292.052C291.54 79.8011 290.816 80.8835 289.879 81.9574C288.958 83.0142 287.756 83.892 286.273 84.5909C284.808 85.2898 283.018 85.6392 280.904 85.6392ZM284.356 76.9716C286.112 76.9716 287.594 76.4943 288.805 75.5398C290.032 74.5682 290.969 73.2131 291.617 71.4744C292.282 69.7358 292.614 67.6989 292.614 65.3636C292.614 63.0284 292.29 61 291.643 59.2784C290.995 57.5568 290.058 56.2273 288.83 55.2898C287.603 54.3523 286.112 53.8835 284.356 53.8835C282.566 53.8835 281.058 54.3693 279.83 55.3409C278.603 56.3125 277.674 57.6591 277.043 59.3807C276.413 61.1023 276.097 63.0966 276.097 65.3636C276.097 67.6477 276.413 69.6676 277.043 71.4233C277.691 73.1619 278.62 74.5256 279.83 75.5142C281.058 76.4858 282.566 76.9716 284.356 76.9716ZM312.411 85V32.6364H333.07C337.041 32.6364 340.425 33.3949 343.22 34.9119C346.016 36.4119 348.146 38.5 349.612 41.1761C351.095 43.8352 351.837 46.9034 351.837 50.3807C351.837 53.858 351.087 56.9261 349.587 59.5852C348.087 62.2443 345.913 64.3153 343.067 65.7983C340.237 67.2812 336.811 68.0227 332.788 68.0227H319.621V59.1506H330.999C333.129 59.1506 334.885 58.7841 336.266 58.0511C337.663 57.3011 338.703 56.2699 339.385 54.9574C340.084 53.6278 340.433 52.1023 340.433 50.3807C340.433 48.642 340.084 47.125 339.385 45.8295C338.703 44.517 337.663 43.5028 336.266 42.7869C334.868 42.054 333.095 41.6875 330.947 41.6875H323.482V85H312.411ZM369.715 32.6364V85H358.823V32.6364H369.715ZM389.639 85.7415C387.134 85.7415 384.901 85.3068 382.94 84.4375C380.98 83.5511 379.429 82.2472 378.287 80.5256C377.162 78.7869 376.599 76.6222 376.599 74.0312C376.599 71.8494 377 70.017 377.801 68.5341C378.602 67.0511 379.693 65.858 381.074 64.9545C382.455 64.0511 384.023 63.3693 385.778 62.9091C387.551 62.4489 389.409 62.125 391.352 61.9375C393.636 61.6989 395.477 61.4773 396.875 61.2727C398.273 61.0511 399.287 60.7273 399.918 60.3011C400.548 59.875 400.864 59.2443 400.864 58.4091V58.2557C400.864 56.6364 400.352 55.3835 399.33 54.4972C398.324 53.6108 396.892 53.1676 395.034 53.1676C393.074 53.1676 391.514 53.6023 390.355 54.4716C389.196 55.3239 388.429 56.3977 388.054 57.6932L377.98 56.875C378.491 54.4886 379.497 52.4261 380.997 50.6875C382.497 48.9318 384.432 47.5852 386.801 46.6477C389.188 45.6932 391.949 45.2159 395.085 45.2159C397.267 45.2159 399.355 45.4716 401.349 45.983C403.361 46.4943 405.142 47.2869 406.693 48.3608C408.261 49.4347 409.497 50.8153 410.401 52.5028C411.304 54.1733 411.756 56.1761 411.756 58.5114V85H401.426V79.554H401.119C400.489 80.7812 399.645 81.8636 398.588 82.8011C397.531 83.7216 396.261 84.446 394.778 84.9744C393.295 85.4858 391.582 85.7415 389.639 85.7415ZM392.759 78.2244C394.361 78.2244 395.776 77.9091 397.003 77.2784C398.23 76.6307 399.193 75.7614 399.892 74.6705C400.591 73.5795 400.94 72.3437 400.94 70.9631V66.7955C400.599 67.017 400.131 67.2216 399.534 67.4091C398.955 67.5795 398.298 67.7415 397.565 67.8949C396.832 68.0312 396.099 68.1591 395.366 68.2784C394.634 68.3807 393.969 68.4744 393.372 68.5597C392.094 68.7472 390.977 69.0455 390.023 69.4545C389.068 69.8636 388.327 70.4176 387.798 71.1165C387.27 71.7983 387.006 72.6506 387.006 73.6733C387.006 75.1562 387.543 76.2898 388.616 77.0739C389.707 77.8409 391.088 78.2244 392.759 78.2244ZM441.095 45.7273V53.9091H417.445V45.7273H441.095ZM422.814 36.3182H433.706V72.9318C433.706 73.9375 433.859 74.7216 434.166 75.2841C434.473 75.8295 434.899 76.2131 435.445 76.4347C436.007 76.6562 436.655 76.767 437.388 76.767C437.899 76.767 438.411 76.7244 438.922 76.6392C439.433 76.5369 439.825 76.4602 440.098 76.4091L441.811 84.5142C441.266 84.6847 440.499 84.8807 439.51 85.1023C438.521 85.3409 437.32 85.4858 435.905 85.5369C433.28 85.6392 430.979 85.2898 429.001 84.4886C427.041 83.6875 425.516 82.4432 424.425 80.7557C423.334 79.0682 422.797 76.9375 422.814 74.3636V36.3182ZM465.666 85.767C461.626 85.767 458.149 84.9489 455.234 83.3125C452.337 81.6591 450.104 79.3239 448.536 76.3068C446.967 73.2727 446.183 69.6847 446.183 65.5426C446.183 61.5028 446.967 57.9574 448.536 54.9062C450.104 51.8551 452.311 49.4773 455.158 47.7727C458.021 46.0682 461.379 45.2159 465.232 45.2159C467.822 45.2159 470.234 45.6335 472.467 46.4688C474.717 47.2869 476.678 48.5227 478.348 50.1761C480.036 51.8295 481.348 53.9091 482.286 56.4148C483.223 58.9034 483.692 61.8182 483.692 65.1591V68.1506H450.53V61.4006H473.439C473.439 59.8324 473.098 58.4432 472.416 57.233C471.734 56.0227 470.788 55.0767 469.578 54.3949C468.385 53.696 466.996 53.3466 465.411 53.3466C463.757 53.3466 462.291 53.7301 461.013 54.4972C459.751 55.2472 458.763 56.2614 458.047 57.5398C457.331 58.8011 456.964 60.2074 456.947 61.7585V68.1761C456.947 70.1193 457.305 71.7983 458.021 73.2131C458.754 74.6278 459.786 75.7188 461.115 76.4858C462.445 77.2528 464.021 77.6364 465.845 77.6364C467.055 77.6364 468.163 77.4659 469.169 77.125C470.175 76.7841 471.036 76.2727 471.751 75.5909C472.467 74.9091 473.013 74.0739 473.388 73.0852L483.462 73.75C482.95 76.1705 481.902 78.2841 480.317 80.0909C478.749 81.8807 476.72 83.2784 474.232 84.2841C471.76 85.2727 468.905 85.767 465.666 85.767ZM523.476 56.9261L513.504 57.5398C513.334 56.6875 512.967 55.9205 512.405 55.2386C511.842 54.5398 511.101 53.9858 510.18 53.5767C509.277 53.1506 508.195 52.9375 506.933 52.9375C505.246 52.9375 503.822 53.2955 502.663 54.0114C501.504 54.7102 500.925 55.6477 500.925 56.8239C500.925 57.7614 501.3 58.554 502.05 59.2017C502.8 59.8494 504.087 60.3693 505.911 60.7614L513.018 62.1932C516.837 62.9773 519.683 64.2386 521.558 65.9773C523.433 67.7159 524.371 70 524.371 72.8295C524.371 75.4034 523.612 77.6619 522.095 79.6051C520.595 81.5483 518.533 83.0653 515.908 84.1562C513.3 85.2301 510.291 85.767 506.882 85.767C501.683 85.767 497.541 84.6847 494.456 82.5199C491.388 80.3381 489.589 77.3722 489.061 73.6222L499.774 73.0597C500.098 74.6449 500.882 75.8551 502.126 76.6903C503.371 77.5085 504.964 77.9176 506.908 77.9176C508.817 77.9176 510.351 77.5511 511.51 76.8182C512.686 76.0682 513.283 75.1051 513.3 73.929C513.283 72.9403 512.865 72.1307 512.047 71.5C511.229 70.8523 509.967 70.358 508.263 70.017L501.462 68.6619C497.626 67.8949 494.771 66.5653 492.896 64.6733C491.038 62.7812 490.109 60.3693 490.109 57.4375C490.109 54.9148 490.791 52.7415 492.155 50.9176C493.536 49.0938 495.47 47.6875 497.959 46.6989C500.464 45.7102 503.396 45.2159 506.754 45.2159C511.714 45.2159 515.618 46.2642 518.464 48.3608C521.328 50.4574 522.999 53.3125 523.476 56.9261Z" fill="#E1DEE3"/>
<defs>
<clipPath id="clip0_4_33">
<rect width="111" height="108" fill="white"/>
</clipPath>
</defs>
</svg>
