<svg width="48" height="32" viewBox="0 0 48 32" fill="none" xmlns="http://www.w3.org/2000/svg">
<g clip-path="url(#clip0_17_328)">
<path d="M48 2.90909C48 1.30245 46.6569 0 45 0H3C1.3431 0 0 1.30245 0 2.90909C0 4.51574 1.3431 5.81818 3 5.81818H45C46.6569 5.81818 48 4.51574 48 2.90909Z" fill="#D9D9D9"/>
<path d="M48 11.6364C48 10.0297 46.6569 8.72727 45 8.72727H9C7.3431 8.72727 6 10.0297 6 11.6364C6 13.243 7.3431 14.5455 9 14.5455H45C46.6569 14.5455 48 13.243 48 11.6364Z" fill="#D9D9D9"/>
<path d="M48 20.3636C48 18.7569 46.6569 17.4545 45 17.4545H15C13.3431 17.4545 12 18.7569 12 20.3636C12 21.9703 13.3431 23.2727 15 23.2727H45C46.6569 23.2727 48 21.9703 48 20.3636Z" fill="#D9D9D9"/>
<path d="M48 29.0909C48 27.4842 46.6569 26.1818 45 26.1818H21C19.3431 26.1818 18 27.4842 18 29.0909C18 30.6976 19.3431 32 21 32H45C46.6569 32 48 30.6976 48 29.0909Z" fill="#D9D9D9"/>
</g>
<defs>
<clipPath id="clip0_17_328">
<rect width="48" height="32" fill="white" transform="matrix(-1 0 0 1 48 0)"/>
</clipPath>
</defs>
</svg>
